%TF.GenerationSoftware,KiCad,Pcbnew,7.0.1*%
%TF.CreationDate,2023-03-21T17:21:33+01:00*%
%TF.ProjectId,PCB_evenwicht,5043425f-6576-4656-9e77-696368742e6b,rev?*%
%TF.SameCoordinates,Original*%
%TF.FileFunction,Soldermask,Top*%
%TF.FilePolarity,Negative*%
%FSLAX46Y46*%
G04 Gerber Fmt 4.6, Leading zero omitted, Abs format (unit mm)*
G04 Created by KiCad (PCBNEW 7.0.1) date 2023-03-21 17:21:33*
%MOMM*%
%LPD*%
G01*
G04 APERTURE LIST*
G04 Aperture macros list*
%AMRoundRect*
0 Rectangle with rounded corners*
0 $1 Rounding radius*
0 $2 $3 $4 $5 $6 $7 $8 $9 X,Y pos of 4 corners*
0 Add a 4 corners polygon primitive as box body*
4,1,4,$2,$3,$4,$5,$6,$7,$8,$9,$2,$3,0*
0 Add four circle primitives for the rounded corners*
1,1,$1+$1,$2,$3*
1,1,$1+$1,$4,$5*
1,1,$1+$1,$6,$7*
1,1,$1+$1,$8,$9*
0 Add four rect primitives between the rounded corners*
20,1,$1+$1,$2,$3,$4,$5,0*
20,1,$1+$1,$4,$5,$6,$7,0*
20,1,$1+$1,$6,$7,$8,$9,0*
20,1,$1+$1,$8,$9,$2,$3,0*%
G04 Aperture macros list end*
%ADD10RoundRect,0.250000X0.550000X-1.500000X0.550000X1.500000X-0.550000X1.500000X-0.550000X-1.500000X0*%
%ADD11RoundRect,0.250000X0.475000X-0.337500X0.475000X0.337500X-0.475000X0.337500X-0.475000X-0.337500X0*%
%ADD12R,1.500000X1.000000*%
%ADD13O,1.700000X1.700000*%
%ADD14R,1.700000X1.700000*%
%ADD15C,1.440000*%
%ADD16RoundRect,0.250000X-0.550000X1.500000X-0.550000X-1.500000X0.550000X-1.500000X0.550000X1.500000X0*%
%ADD17RoundRect,0.250000X-0.350000X-0.450000X0.350000X-0.450000X0.350000X0.450000X-0.350000X0.450000X0*%
%ADD18RoundRect,0.250000X0.350000X0.450000X-0.350000X0.450000X-0.350000X-0.450000X0.350000X-0.450000X0*%
%ADD19R,1.500000X0.900000*%
%ADD20R,0.900000X1.500000*%
%ADD21C,0.600000*%
%ADD22R,4.200000X4.200000*%
%ADD23RoundRect,0.250000X0.337500X0.475000X-0.337500X0.475000X-0.337500X-0.475000X0.337500X-0.475000X0*%
%ADD24R,1.500000X2.000000*%
%ADD25R,3.800000X2.000000*%
%ADD26C,2.032000*%
%ADD27R,0.760000X1.600000*%
%ADD28RoundRect,0.250000X-0.337500X-0.475000X0.337500X-0.475000X0.337500X0.475000X-0.337500X0.475000X0*%
%ADD29RoundRect,0.250000X0.450000X-0.350000X0.450000X0.350000X-0.450000X0.350000X-0.450000X-0.350000X0*%
%ADD30RoundRect,0.250000X-0.450000X0.350000X-0.450000X-0.350000X0.450000X-0.350000X0.450000X0.350000X0*%
%ADD31R,3.150000X3.150000*%
%ADD32R,0.300000X1.150000*%
%ADD33R,1.150000X0.300000*%
%ADD34RoundRect,0.250000X0.650000X-0.412500X0.650000X0.412500X-0.650000X0.412500X-0.650000X-0.412500X0*%
%ADD35RoundRect,0.250000X0.450000X-0.325000X0.450000X0.325000X-0.450000X0.325000X-0.450000X-0.325000X0*%
%ADD36RoundRect,0.250000X-0.650000X0.412500X-0.650000X-0.412500X0.650000X-0.412500X0.650000X0.412500X0*%
%ADD37R,4.600000X2.000000*%
%ADD38O,4.200000X2.000000*%
%ADD39O,2.000000X4.200000*%
%ADD40RoundRect,0.250000X-0.450000X0.325000X-0.450000X-0.325000X0.450000X-0.325000X0.450000X0.325000X0*%
G04 APERTURE END LIST*
D10*
%TO.C,C20*%
X150114000Y-61214000D03*
X150114000Y-55614000D03*
%TD*%
D11*
%TO.C,C10*%
X155702000Y-53826500D03*
X155702000Y-55901500D03*
%TD*%
D12*
%TO.C,JP5*%
X160981000Y-73787000D03*
X160981000Y-72487000D03*
X160981000Y-71187000D03*
%TD*%
D13*
%TO.C,J4*%
X168402000Y-70358000D03*
X168402000Y-67818000D03*
X168402000Y-65278000D03*
D14*
X168402000Y-62738000D03*
%TD*%
D15*
%TO.C,RV2*%
X143779000Y-78333600D03*
X146319000Y-80873600D03*
X143779000Y-83413600D03*
%TD*%
%TO.C,RV1*%
X145796000Y-67564000D03*
X148336000Y-70104000D03*
X145796000Y-72644000D03*
%TD*%
D13*
%TO.C,J6*%
X167855500Y-94244000D03*
X167855500Y-91704000D03*
X167855500Y-89164000D03*
D14*
X167855500Y-86624000D03*
%TD*%
D16*
%TO.C,C19*%
X150114000Y-91174000D03*
X150114000Y-96774000D03*
%TD*%
D17*
%TO.C,R14*%
X164521000Y-90805000D03*
X162521000Y-90805000D03*
%TD*%
D18*
%TO.C,R15*%
X155917000Y-91059000D03*
X157917000Y-91059000D03*
%TD*%
D11*
%TO.C,C18*%
X154432000Y-76940500D03*
X154432000Y-79015500D03*
%TD*%
D19*
%TO.C,U1*%
X116345000Y-53935000D03*
X116345000Y-55205000D03*
X116345000Y-56475000D03*
X116345000Y-57745000D03*
X116345000Y-59015000D03*
X116345000Y-60285000D03*
X116345000Y-61555000D03*
X116345000Y-62825000D03*
X116345000Y-64095000D03*
X116345000Y-65365000D03*
X116345000Y-66635000D03*
X116345000Y-67905000D03*
X116345000Y-69175000D03*
X116345000Y-70445000D03*
D20*
X119385000Y-71695000D03*
X120655000Y-71695000D03*
X121925000Y-71695000D03*
X123195000Y-71695000D03*
X124465000Y-71695000D03*
X125735000Y-71695000D03*
X127005000Y-71695000D03*
X128275000Y-71695000D03*
X129545000Y-71695000D03*
X130815000Y-71695000D03*
D19*
X133845000Y-70445000D03*
X133845000Y-69175000D03*
X133845000Y-67905000D03*
X133845000Y-66635000D03*
X133845000Y-65365000D03*
X133845000Y-64095000D03*
X133845000Y-62825000D03*
X133845000Y-61555000D03*
X133845000Y-60285000D03*
X133845000Y-59015000D03*
X133845000Y-57745000D03*
X133845000Y-56475000D03*
X133845000Y-55205000D03*
X133845000Y-53935000D03*
D21*
X122890000Y-60512500D03*
X122890000Y-62037500D03*
X123652500Y-59750000D03*
X123652500Y-61275000D03*
X123652500Y-62800000D03*
X124415000Y-60512500D03*
D22*
X124415000Y-61275000D03*
D21*
X124415000Y-62037500D03*
X125177500Y-59750000D03*
X125177500Y-61275000D03*
X125177500Y-62800000D03*
X125940000Y-60512500D03*
X125940000Y-62037500D03*
%TD*%
D12*
%TO.C,JP2*%
X160676900Y-51176100D03*
X160676900Y-49876100D03*
X160676900Y-48576100D03*
%TD*%
D11*
%TO.C,C2*%
X105918000Y-62251500D03*
X105918000Y-60176500D03*
%TD*%
D23*
%TO.C,C14*%
X166288500Y-80113000D03*
X168363500Y-80113000D03*
%TD*%
D14*
%TO.C,J8*%
X107696000Y-80264000D03*
D13*
X110236000Y-80264000D03*
X112776000Y-80264000D03*
%TD*%
D12*
%TO.C,JP6*%
X164811000Y-73787000D03*
X164811000Y-72487000D03*
X164811000Y-71187000D03*
%TD*%
D24*
%TO.C,U2*%
X111760000Y-64820000D03*
X109460000Y-64820000D03*
D25*
X109460000Y-71120000D03*
D24*
X107160000Y-64820000D03*
%TD*%
D26*
%TO.C,U3*%
X131191000Y-81534000D03*
X128651000Y-81534000D03*
X120523000Y-81534000D03*
X117983000Y-81534000D03*
X117983000Y-100076000D03*
X120523000Y-100076000D03*
X128651000Y-100076000D03*
X131191000Y-100076000D03*
%TD*%
D27*
%TO.C,SW2*%
X135636000Y-82042000D03*
X135636000Y-74422000D03*
%TD*%
D28*
%TO.C,C9*%
X165524400Y-63754000D03*
X163449400Y-63754000D03*
%TD*%
D29*
%TO.C,R1*%
X113030000Y-60182000D03*
X113030000Y-58182000D03*
%TD*%
D14*
%TO.C,J2*%
X143256000Y-62484000D03*
D13*
X143256000Y-59944000D03*
X143256000Y-57404000D03*
X143256000Y-54864000D03*
%TD*%
D12*
%TO.C,JP1*%
X156866900Y-51176100D03*
X156866900Y-49876100D03*
X156866900Y-48576100D03*
%TD*%
%TO.C,JP4*%
X157425000Y-73787000D03*
X157425000Y-72487000D03*
X157425000Y-71187000D03*
%TD*%
D18*
%TO.C,R11*%
X157136900Y-67686100D03*
X159136900Y-67686100D03*
%TD*%
D27*
%TO.C,SW1*%
X109474000Y-61722000D03*
X109474000Y-54102000D03*
%TD*%
D18*
%TO.C,R2*%
X138795000Y-70485000D03*
X136795000Y-70485000D03*
%TD*%
%TO.C,R5*%
X138795000Y-57785000D03*
X136795000Y-57785000D03*
%TD*%
D17*
%TO.C,R10*%
X165486900Y-67056000D03*
X163486900Y-67056000D03*
%TD*%
D14*
%TO.C,J7*%
X110236000Y-89408000D03*
D13*
X107696000Y-89408000D03*
%TD*%
D29*
%TO.C,R3*%
X130175000Y-76565000D03*
X130175000Y-74565000D03*
%TD*%
D18*
%TO.C,R6*%
X138795000Y-65405000D03*
X136795000Y-65405000D03*
%TD*%
D14*
%TO.C,J3*%
X110241000Y-93980000D03*
D13*
X107701000Y-93980000D03*
%TD*%
D12*
%TO.C,JP3*%
X164338000Y-51176100D03*
X164338000Y-49876100D03*
X164338000Y-48576100D03*
%TD*%
D23*
%TO.C,C11*%
X166348500Y-83210400D03*
X168423500Y-83210400D03*
%TD*%
D28*
%TO.C,C12*%
X165574500Y-76581000D03*
X163499500Y-76581000D03*
%TD*%
D23*
%TO.C,C16*%
X155879500Y-87757000D03*
X157954500Y-87757000D03*
%TD*%
D30*
%TO.C,R7*%
X125095000Y-74565000D03*
X125095000Y-76565000D03*
%TD*%
D11*
%TO.C,C1*%
X113030000Y-55880000D03*
X113030000Y-53805000D03*
%TD*%
D30*
%TO.C,R4*%
X120015000Y-74565000D03*
X120015000Y-76565000D03*
%TD*%
D31*
%TO.C,IC1*%
X161311900Y-58376600D03*
D32*
X162811900Y-60726600D03*
X162311900Y-60726600D03*
X161811900Y-60726600D03*
X161311900Y-60726600D03*
X160811900Y-60726600D03*
X160311900Y-60726600D03*
X159811900Y-60726600D03*
D33*
X158961900Y-59876600D03*
X158961900Y-59376600D03*
X158961900Y-58876600D03*
X158961900Y-58376600D03*
X158961900Y-57876600D03*
X158961900Y-57376600D03*
X158961900Y-56876600D03*
D32*
X159811900Y-56026600D03*
X160311900Y-56026600D03*
X160811900Y-56026600D03*
X161311900Y-56026600D03*
X161811900Y-56026600D03*
X162311900Y-56026600D03*
X162811900Y-56026600D03*
D33*
X163661900Y-56876600D03*
X163661900Y-57376600D03*
X163661900Y-57876600D03*
X163661900Y-58376600D03*
X163661900Y-58876600D03*
X163661900Y-59376600D03*
X163661900Y-59876600D03*
%TD*%
D34*
%TO.C,C17*%
X153310900Y-64091600D03*
X153310900Y-67216600D03*
%TD*%
D14*
%TO.C,J9*%
X110241000Y-98552000D03*
D13*
X107701000Y-98552000D03*
%TD*%
D31*
%TO.C,IC2*%
X160546000Y-81915000D03*
D32*
X162046000Y-84265000D03*
X161546000Y-84265000D03*
X161046000Y-84265000D03*
X160546000Y-84265000D03*
X160046000Y-84265000D03*
X159546000Y-84265000D03*
X159046000Y-84265000D03*
D33*
X158196000Y-83415000D03*
X158196000Y-82915000D03*
X158196000Y-82415000D03*
X158196000Y-81915000D03*
X158196000Y-81415000D03*
X158196000Y-80915000D03*
X158196000Y-80415000D03*
D32*
X159046000Y-79565000D03*
X159546000Y-79565000D03*
X160046000Y-79565000D03*
X160546000Y-79565000D03*
X161046000Y-79565000D03*
X161546000Y-79565000D03*
X162046000Y-79565000D03*
D33*
X162896000Y-80415000D03*
X162896000Y-80915000D03*
X162896000Y-81415000D03*
X162896000Y-81915000D03*
X162896000Y-82415000D03*
X162896000Y-82915000D03*
X162896000Y-83415000D03*
%TD*%
D14*
%TO.C,J5*%
X107696000Y-84836000D03*
D13*
X110236000Y-84836000D03*
X112776000Y-84836000D03*
%TD*%
D30*
%TO.C,R13*%
X154123000Y-73787000D03*
X154123000Y-71787000D03*
%TD*%
D23*
%TO.C,C8*%
X166243400Y-56510100D03*
X168318400Y-56510100D03*
%TD*%
D28*
%TO.C,C6*%
X164549000Y-53594000D03*
X166624000Y-53594000D03*
%TD*%
%TO.C,C7*%
X159174400Y-64091600D03*
X157099400Y-64091600D03*
%TD*%
D35*
%TO.C,D2*%
X122555000Y-76590000D03*
X122555000Y-74540000D03*
%TD*%
D23*
%TO.C,C5*%
X166243400Y-59304100D03*
X168318400Y-59304100D03*
%TD*%
D36*
%TO.C,C15*%
X152654000Y-87795500D03*
X152654000Y-84670500D03*
%TD*%
D37*
%TO.C,J1*%
X139192000Y-87934000D03*
D38*
X139192000Y-94234000D03*
D39*
X143992000Y-90834000D03*
%TD*%
D23*
%TO.C,C4*%
X108987500Y-76962000D03*
X106912500Y-76962000D03*
%TD*%
%TO.C,C13*%
X162493500Y-87630000D03*
X164568500Y-87630000D03*
%TD*%
D40*
%TO.C,D1*%
X127635000Y-74540000D03*
X127635000Y-76590000D03*
%TD*%
D30*
%TO.C,R9*%
X153564900Y-50668100D03*
X153564900Y-48668100D03*
%TD*%
D28*
%TO.C,C3*%
X106891000Y-73914000D03*
X108966000Y-73914000D03*
%TD*%
M02*
