M48
; DRILL file {KiCad 7.0.1} date Mon May  8 21:23:59 2023
; FORMAT={-:-/ absolute / inch / decimal}
; #@! TF.CreationDate,2023-05-08T21:23:59+02:00
; #@! TF.GenerationSoftware,Kicad,Pcbnew,7.0.1
; #@! TF.FileFunction,MixedPlating,1,2
FMAT,2
INCH
; #@! TA.AperFunction,Plated,PTH,ViaDrill
T1C0.0118
; #@! TA.AperFunction,Plated,PTH,ComponentDrill
T2C0.0118
; #@! TA.AperFunction,Plated,PTH,ComponentDrill
T3C0.0315
; #@! TA.AperFunction,Plated,PTH,ComponentDrill
T4C0.0394
; #@! TA.AperFunction,Plated,PTH,ComponentDrill
T5C0.0500
%
G90
G05
T1
X4.3Y-2.8
X4.4Y-2.2
X4.418Y-2.676
X4.52Y-2.674
X4.522Y-2.436
X4.524Y-2.376
X4.5476Y-2.724
X4.578Y-2.892
X4.58Y-2.472
X4.58Y-2.522
X4.684Y-2.74
X5.27Y-2.524
X5.272Y-2.474
X5.428Y-2.1946
X5.4644Y-2.575
X5.808Y-2.188
X5.91Y-3.946
X5.928Y-2.006
X5.98Y-2.826
X6.01Y-3.4565
X6.02Y-3.254
X6.0359Y-2.5233
X6.06Y-2.25
X6.08Y-3.11
X6.096Y-2.334
X6.12Y-3.275
X6.125Y-3.165
X6.13Y-2.2008
X6.134Y-2.382
X6.1385Y-3.585
X6.1759Y-2.0148
X6.185Y-2.595
X6.1878Y-3.375
X6.1978Y-2.905
X6.198Y-3.088
X6.2059Y-2.1848
X6.2187Y-3.455
X6.262Y-2.17
X6.2679Y-2.5218
X6.272Y-3.052
X6.2759Y-2.0948
X6.296Y-3.2
X6.296Y-3.224
X6.296Y-3.248
X6.314Y-2.124
X6.32Y-3.2
X6.32Y-3.224
X6.32Y-3.248
X6.3259Y-2.0148
X6.328Y-2.272
X6.328Y-2.296
X6.328Y-2.32
X6.3378Y-2.905
X6.344Y-3.2
X6.344Y-3.224
X6.344Y-3.248
X6.352Y-2.272
X6.352Y-2.296
X6.352Y-2.32
X6.376Y-2.272
X6.376Y-2.296
X6.376Y-2.32
X6.3978Y-3.455
X6.435Y-2.51
X6.47Y-2.0148
X6.478Y-3.514
X6.4886Y-2.905
X6.496Y-2.328
X6.5167Y-2.51
X6.584Y-2.028
X6.6267Y-2.2248
X6.6285Y-3.1541
T2
X4.8382Y-2.3824
X4.8382Y-2.4424
X4.8682Y-2.3524
X4.8682Y-2.4124
X4.8682Y-2.4724
X4.8982Y-2.3824
X4.8982Y-2.4424
X4.9282Y-2.3524
X4.9282Y-2.4124
X4.9282Y-2.4724
X4.9583Y-2.3824
X4.9583Y-2.4424
T3
X5.7Y-3.078
X5.7Y-3.278
X5.746Y-2.662
X5.746Y-2.862
X5.8Y-3.178
X5.846Y-2.762
T4
X4.24Y-3.16
X4.24Y-3.34
X4.24Y-3.52
X4.2402Y-3.7
X4.2402Y-3.88
X4.34Y-3.16
X4.34Y-3.34
X4.34Y-3.52
X4.3402Y-3.7
X4.3402Y-3.88
X4.44Y-3.16
X4.44Y-3.34
X5.64Y-2.16
X5.64Y-2.26
X5.64Y-2.36
X5.64Y-2.46
X6.63Y-2.47
X6.63Y-2.57
X6.63Y-2.67
X6.63Y-2.77
X6.63Y-3.4104
X6.63Y-3.5104
X6.63Y-3.6104
X6.63Y-3.7104
T5
X4.656Y-3.212
X4.656Y-3.942
X4.756Y-3.212
X4.756Y-3.942
X5.076Y-3.212
X5.076Y-3.942
X5.176Y-3.212
X5.176Y-3.942
T4
G00X5.4288Y-3.462
M15
G01X5.5312Y-3.462
M16
G05
G00X5.4367Y-3.71
M15
G01X5.5233Y-3.71
M16
G05
G00X5.669Y-3.5328
M15
G01X5.669Y-3.6194
M16
G05
T0
M30
