<?xml version="1.0" encoding="UTF-8" standalone="no"?>
<svg
   width="205mm"
   height="149mm"
   viewBox="0 0 205 149"
   version="1.1"
   preserveAspectRatio="xMidYMid meet"
   id="svg34"
   sodipodi:docname="box pcb.svg"
   inkscape:version="1.2.2 (732a01da63, 2022-12-09)"
   xmlns:inkscape="http://www.inkscape.org/namespaces/inkscape"
   xmlns:sodipodi="http://sodipodi.sourceforge.net/DTD/sodipodi-0.dtd"
   xmlns="http://www.w3.org/2000/svg"
   xmlns:svg="http://www.w3.org/2000/svg">
  <defs
     id="defs38" />
  <sodipodi:namedview
     id="namedview36"
     pagecolor="#ffffff"
     bordercolor="#000000"
     borderopacity="0.25"
     inkscape:showpageshadow="2"
     inkscape:pageopacity="0.0"
     inkscape:pagecheckerboard="0"
     inkscape:deskcolor="#d1d1d1"
     inkscape:document-units="mm"
     showgrid="false"
     inkscape:zoom="1.3752655"
     inkscape:cx="387.56153"
     inkscape:cy="398.10495"
     inkscape:window-width="1920"
     inkscape:window-height="991"
     inkscape:window-x="-9"
     inkscape:window-y="-9"
     inkscape:window-maximized="1"
     inkscape:current-layer="svg34" />
  <g
     id="svgGroup"
     stroke-linecap="round"
     fill-rule="evenodd"
     font-size="9pt"
     stroke="#000"
     stroke-width="0.25mm"
     fill="none"
     style="stroke:#000;stroke-width:0.25mm;fill:none">
    <path
       d="M 0 126 L 0 133.355 L 3 133.355 L 3 141.645 L 0 141.645 L 0 149 L 10.775 149 L 10.775 146 L 19.065 146 L 19.065 149 L 27.355 149 L 27.355 146 L 35.645 146 L 35.645 149 L 43.935 149 L 43.935 146 L 52.225 146 L 52.225 149 L 60.515 149 L 63 149 L 63 141.645 L 60 141.645 L 60 133.355 L 63 133.355 L 63 126 L 52.225 126 L 52.225 129 L 43.935 129 L 43.935 126 L 35.645 126 L 35.645 129 L 27.355 129 L 27.355 126 L 19.065 126 L 19.065 129 L 10.775 129 L 10.775 126 L 2.485 126 L 0 126 Z"
       id="front_outsideCutPath"
       stroke="#FF0000"
       stroke-width="0.1"
       style="stroke:#FF0000;stroke-width:0.1"
       vector-effect="non-scaling-stroke" />
    <path
       d="M 34.852 139.237 L 34.479 139.237 L 34.479 137.645 A 1.054 1.054 0 0 0 34.467 137.48 Q 34.454 137.393 34.424 137.323 A 0.444 0.444 0 0 0 34.342 137.196 Q 34.232 137.076 34.019 137.053 A 0.988 0.988 0 0 0 33.913 137.047 Q 33.527 137.047 33.347 137.256 Q 33.183 137.447 33.169 137.865 A 2.389 2.389 0 0 0 33.168 137.946 L 33.168 139.237 L 32.795 139.237 L 32.795 136.776 L 33.098 136.776 L 33.159 137.113 L 33.177 137.113 A 0.755 0.755 0 0 1 33.472 136.843 A 0.907 0.907 0 0 1 33.498 136.831 Q 33.705 136.731 33.958 136.731 A 1.472 1.472 0 0 1 34.209 136.751 Q 34.472 136.796 34.628 136.945 A 0.646 0.646 0 0 1 34.785 137.192 Q 34.852 137.373 34.852 137.631 L 34.852 139.237 Z M 27.69 136.776 L 27.69 137.065 L 27.063 137.065 L 27.063 139.237 L 26.69 139.237 L 26.69 137.065 L 26.25 137.065 L 26.25 136.897 L 26.69 136.762 L 26.69 136.625 A 1.511 1.511 0 0 1 26.725 136.283 Q 26.857 135.718 27.483 135.718 Q 27.678 135.718 27.941 135.796 L 27.844 136.095 Q 27.691 136.046 27.57 136.031 A 0.802 0.802 0 0 0 27.476 136.025 A 0.503 0.503 0 0 0 27.355 136.039 A 0.323 0.323 0 0 0 27.164 136.166 A 0.431 0.431 0 0 0 27.107 136.281 Q 27.069 136.393 27.064 136.56 A 1.76 1.76 0 0 0 27.063 136.616 L 27.063 136.776 L 27.69 136.776 Z M 36.75 138.93 L 36.75 139.215 A 0.367 0.367 0 0 1 36.707 139.232 Q 36.653 139.25 36.572 139.263 Q 36.454 139.282 36.359 139.282 Q 35.79 139.282 35.674 138.804 A 1.172 1.172 0 0 1 35.645 138.53 L 35.645 137.065 L 35.293 137.065 L 35.293 136.886 L 35.645 136.731 L 35.802 136.205 L 36.018 136.205 L 36.018 136.776 L 36.732 136.776 L 36.732 137.065 L 36.018 137.065 L 36.018 138.514 A 0.751 0.751 0 0 0 36.029 138.646 Q 36.052 138.775 36.124 138.855 A 0.346 0.346 0 0 0 36.337 138.969 A 0.498 0.498 0 0 0 36.413 138.975 A 1.225 1.225 0 0 0 36.593 138.962 A 1.133 1.133 0 0 0 36.604 138.96 Q 36.692 138.946 36.745 138.931 A 0.559 0.559 0 0 0 36.75 138.93 Z M 29.556 136.758 L 29.504 137.104 A 1.643 1.643 0 0 0 29.386 137.082 Q 29.327 137.073 29.275 137.071 A 0.874 0.874 0 0 0 29.235 137.07 A 0.646 0.646 0 0 0 28.758 137.276 A 0.884 0.884 0 0 0 28.724 137.312 A 0.851 0.851 0 0 0 28.518 137.79 A 1.132 1.132 0 0 0 28.512 137.917 L 28.512 139.237 L 28.139 139.237 L 28.139 136.776 L 28.446 136.776 L 28.489 137.232 L 28.507 137.232 A 1.259 1.259 0 0 1 28.648 137.03 A 0.962 0.962 0 0 1 28.837 136.861 A 0.743 0.743 0 0 1 29.262 136.731 A 1.712 1.712 0 0 1 29.415 136.737 A 1.249 1.249 0 0 1 29.556 136.758 Z M 32.107 138.379 A 1.926 1.926 0 0 0 32.141 138.004 A 2.188 2.188 0 0 0 32.14 137.945 Q 32.135 137.74 32.091 137.566 A 1.161 1.161 0 0 0 31.837 137.074 A 0.976 0.976 0 0 0 31.384 136.782 A 1.253 1.253 0 0 0 31.016 136.731 A 1.448 1.448 0 0 0 30.756 136.753 A 0.986 0.986 0 0 0 30.18 137.066 Q 29.879 137.402 29.879 138.004 A 1.865 1.865 0 0 0 29.903 138.306 A 1.379 1.379 0 0 0 30.019 138.683 A 1.225 1.225 0 0 0 30.046 138.736 A 1.009 1.009 0 0 0 30.414 139.127 A 1.038 1.038 0 0 0 30.652 139.233 A 1.197 1.197 0 0 0 31 139.282 A 1.448 1.448 0 0 0 31.253 139.261 A 0.994 0.994 0 0 0 31.838 138.944 A 1.04 1.04 0 0 0 31.962 138.774 Q 32.063 138.601 32.107 138.379 Z M 30.266 138.004 Q 30.266 138.476 30.454 138.723 A 0.611 0.611 0 0 0 30.852 138.957 A 0.926 0.926 0 0 0 31.009 138.97 Q 31.375 138.97 31.565 138.724 A 0.8 0.8 0 0 0 31.69 138.481 Q 31.755 138.282 31.755 138.004 A 1.86 1.86 0 0 0 31.737 137.739 Q 31.697 137.461 31.565 137.291 A 0.613 0.613 0 0 0 31.184 137.064 A 0.94 0.94 0 0 0 31.005 137.047 A 0.887 0.887 0 0 0 30.784 137.073 A 0.594 0.594 0 0 0 30.452 137.288 A 0.771 0.771 0 0 0 30.332 137.519 Q 30.297 137.626 30.28 137.756 A 1.97 1.97 0 0 0 30.266 138.004 Z"
       id="front_labelLayer"
       stroke="#777777"
       fill="#777777"
       style="stroke:#777777;fill:#777777"
       vector-effect="non-scaling-stroke" />
    <path
       d="M 69 126 L 69 133.355 L 66 133.355 L 66 141.645 L 69 141.645 L 69 149 L 73.485 149 L 73.485 146 L 81.775 146 L 81.775 149 L 90.065 149 L 90.065 146 L 98.355 146 L 98.355 149 L 106.645 149 L 106.645 146 L 114.935 146 L 114.935 149 L 123.225 149 L 123.225 146 L 131.515 146 L 131.515 149 L 136 149 L 136 141.645 L 139 141.645 L 139 133.355 L 136 133.355 L 136 126 L 131.515 126 L 131.515 129 L 123.225 129 L 123.225 126 L 114.935 126 L 114.935 129 L 106.645 129 L 106.645 126 L 98.355 126 L 98.355 129 L 90.065 129 L 90.065 126 L 81.775 126 L 81.775 129 L 73.485 129 L 73.485 126 L 69 126 Z"
       id="left_outsideCutPath"
       stroke="#FF0000"
       stroke-width="0.1"
       style="stroke:#FF0000;stroke-width:0.1"
       vector-effect="non-scaling-stroke" />
    <path
       d="M 104.136 136.776 L 104.136 137.065 L 103.51 137.065 L 103.51 139.237 L 103.137 139.237 L 103.137 137.065 L 102.697 137.065 L 102.697 136.897 L 103.137 136.762 L 103.137 136.625 A 1.511 1.511 0 0 1 103.172 136.283 Q 103.304 135.718 103.93 135.718 Q 104.125 135.718 104.388 135.796 L 104.291 136.095 Q 104.138 136.046 104.017 136.031 A 0.802 0.802 0 0 0 103.923 136.025 A 0.503 0.503 0 0 0 103.802 136.039 A 0.323 0.323 0 0 0 103.611 136.166 A 0.431 0.431 0 0 0 103.554 136.281 Q 103.516 136.393 103.51 136.56 A 1.76 1.76 0 0 0 103.51 136.616 L 103.51 136.776 L 104.136 136.776 Z M 102.391 137.838 L 102.391 138.074 L 100.695 138.074 A 1.496 1.496 0 0 0 100.721 138.324 Q 100.748 138.461 100.802 138.569 A 0.7 0.7 0 0 0 100.914 138.732 A 0.678 0.678 0 0 0 101.27 138.932 A 1.027 1.027 0 0 0 101.499 138.957 A 1.969 1.969 0 0 0 102.237 138.81 A 2.257 2.257 0 0 0 102.285 138.79 L 102.285 139.123 A 2.238 2.238 0 0 1 102.082 139.2 A 1.712 1.712 0 0 1 101.912 139.245 A 1.565 1.565 0 0 1 101.756 139.269 Q 101.68 139.277 101.593 139.28 A 3.038 3.038 0 0 1 101.486 139.282 A 1.449 1.449 0 0 1 101.123 139.239 A 1.026 1.026 0 0 1 100.625 138.95 Q 100.327 138.637 100.31 138.094 A 2.129 2.129 0 0 1 100.309 138.027 A 1.958 1.958 0 0 1 100.345 137.638 Q 100.393 137.402 100.504 137.219 A 1.104 1.104 0 0 1 100.602 137.081 A 0.955 0.955 0 0 1 101.298 136.734 A 1.318 1.318 0 0 1 101.389 136.731 A 1.136 1.136 0 0 1 101.709 136.773 A 0.864 0.864 0 0 1 102.122 137.035 A 1.043 1.043 0 0 1 102.358 137.511 A 1.518 1.518 0 0 1 102.391 137.838 Z M 105.718 138.93 L 105.718 139.215 A 0.367 0.367 0 0 1 105.674 139.232 Q 105.62 139.25 105.539 139.263 Q 105.421 139.282 105.327 139.282 Q 104.757 139.282 104.642 138.804 A 1.172 1.172 0 0 1 104.612 138.53 L 104.612 137.065 L 104.26 137.065 L 104.26 136.886 L 104.612 136.731 L 104.77 136.205 L 104.985 136.205 L 104.985 136.776 L 105.7 136.776 L 105.7 137.065 L 104.985 137.065 L 104.985 138.514 A 0.751 0.751 0 0 0 104.996 138.646 Q 105.019 138.775 105.091 138.855 A 0.346 0.346 0 0 0 105.304 138.969 A 0.498 0.498 0 0 0 105.381 138.975 A 1.225 1.225 0 0 0 105.56 138.962 A 1.133 1.133 0 0 0 105.572 138.96 Q 105.659 138.946 105.713 138.931 A 0.559 0.559 0 0 0 105.718 138.93 Z M 99.655 135.742 L 99.655 139.237 L 99.282 139.237 L 99.282 135.742 L 99.655 135.742 Z M 100.704 137.771 L 101.991 137.771 Q 101.991 137.532 101.919 137.369 A 0.577 0.577 0 0 0 101.834 137.23 A 0.511 0.511 0 0 0 101.526 137.055 A 0.766 0.766 0 0 0 101.385 137.043 A 0.735 0.735 0 0 0 101.172 137.072 A 0.568 0.568 0 0 0 100.912 137.236 Q 100.752 137.411 100.712 137.707 A 1.408 1.408 0 0 0 100.704 137.771 Z"
       id="left_labelLayer"
       stroke="#777777"
       fill="#777777"
       style="stroke:#777777;fill:#777777"
       vector-effect="non-scaling-stroke" />
    <path
       d="M 145 79 L 145 83.485 L 142 83.485 L 142 91.775 L 145 91.775 L 145 100.065 L 142 100.065 L 142 108.355 L 145 108.355 L 145 116.645 L 142 116.645 L 142 124.935 L 145 124.935 L 145 133.225 L 142 133.225 L 142 141.515 L 145 141.515 L 145 146 L 152.775 146 L 152.775 149 L 161.065 149 L 161.065 146 L 169.355 146 L 169.355 149 L 177.645 149 L 177.645 146 L 185.935 146 L 185.935 149 L 194.225 149 L 194.225 146 L 202 146 L 202 141.515 L 205 141.515 L 205 133.225 L 202 133.225 L 202 124.935 L 205 124.935 L 205 116.645 L 202 116.645 L 202 108.355 L 205 108.355 L 205 100.065 L 202 100.065 L 202 91.775 L 205 91.775 L 205 83.485 L 202 83.485 L 202 79 L 194.225 79 L 194.225 76 L 185.935 76 L 185.935 79 L 177.645 79 L 177.645 76 L 169.355 76 L 169.355 79 L 161.065 79 L 161.065 76 L 152.775 76 L 152.775 79 L 145 79 Z"
       id="top_outsideCutPath"
       stroke="#FF0000"
       stroke-width="0.1"
       style="stroke:#FF0000;stroke-width:0.1"
       vector-effect="non-scaling-stroke" />
    <path
       d="M 178.028 114.272 L 177.954 114.272 A 9.665 9.665 0 0 1 178.018 114.986 A 8.099 8.099 0 0 1 178.028 115.392 L 178.028 118.166 L 177.007 118.166 L 177.007 108.396 L 177.837 108.396 L 177.979 109.319 L 178.028 109.319 Q 178.422 108.766 178.945 108.519 A 2.558 2.558 0 0 1 179.678 108.305 A 3.31 3.31 0 0 1 180.144 108.273 A 3.131 3.131 0 0 1 181.029 108.392 A 2.314 2.314 0 0 1 182.215 109.19 A 3.067 3.067 0 0 1 182.738 110.212 Q 182.873 110.652 182.919 111.182 A 6.65 6.65 0 0 1 182.944 111.762 Q 182.944 113.423 182.202 114.343 A 2.418 2.418 0 0 1 180.484 115.246 A 3.464 3.464 0 0 1 180.144 115.262 Q 179.486 115.262 178.942 115.019 Q 178.397 114.776 178.028 114.272 Z M 168.049 114.296 L 168.049 115.078 A 1.005 1.005 0 0 1 167.93 115.125 Q 167.803 115.167 167.621 115.2 A 3.819 3.819 0 0 1 167.56 115.21 A 4.427 4.427 0 0 1 167.271 115.248 Q 167.135 115.261 167.013 115.262 A 2.616 2.616 0 0 1 166.978 115.262 A 2.667 2.667 0 0 1 166.192 115.157 Q 165.022 114.795 165.022 113.201 L 165.022 109.19 L 164.056 109.19 L 164.056 108.698 L 165.022 108.273 L 165.453 106.834 L 166.043 106.834 L 166.043 108.396 L 168 108.396 L 168 109.19 L 166.043 109.19 L 166.043 113.158 Q 166.043 113.586 166.186 113.875 A 0.991 0.991 0 0 0 166.332 114.093 A 0.949 0.949 0 0 0 166.916 114.404 A 1.365 1.365 0 0 0 167.126 114.42 A 3.354 3.354 0 0 0 167.617 114.384 A 3.088 3.088 0 0 0 167.649 114.38 A 5.525 5.525 0 0 0 167.797 114.354 Q 167.937 114.328 168.035 114.3 A 1.534 1.534 0 0 0 168.049 114.296 Z M 175.123 112.788 A 5.275 5.275 0 0 0 175.216 111.762 A 5.994 5.994 0 0 0 175.214 111.6 Q 175.199 111.038 175.078 110.561 A 3.18 3.18 0 0 0 174.383 109.215 A 2.674 2.674 0 0 0 173.142 108.414 A 3.432 3.432 0 0 0 172.134 108.273 Q 170.67 108.273 169.845 109.193 A 2.822 2.822 0 0 0 169.499 109.674 Q 169.021 110.506 169.021 111.762 A 5.109 5.109 0 0 0 169.085 112.589 A 3.778 3.778 0 0 0 169.402 113.62 Q 169.784 114.413 170.485 114.838 A 2.844 2.844 0 0 0 171.138 115.128 A 3.28 3.28 0 0 0 172.091 115.262 A 3.966 3.966 0 0 0 172.784 115.205 A 2.723 2.723 0 0 0 174.386 114.336 A 2.849 2.849 0 0 0 174.725 113.87 Q 175.002 113.397 175.123 112.788 Z M 170.079 111.762 Q 170.079 113.054 170.596 113.73 A 1.674 1.674 0 0 0 171.686 114.372 A 2.536 2.536 0 0 0 172.116 114.407 A 2.372 2.372 0 0 0 172.742 114.329 A 1.651 1.651 0 0 0 173.638 113.734 Q 174.158 113.06 174.158 111.762 Q 174.158 110.476 173.638 109.808 A 1.68 1.68 0 0 0 172.594 109.185 A 2.576 2.576 0 0 0 172.103 109.141 A 2.431 2.431 0 0 0 171.498 109.212 A 1.627 1.627 0 0 0 170.59 109.799 A 2.112 2.112 0 0 0 170.262 110.433 Q 170.079 110.982 170.079 111.762 Z M 178.028 111.534 L 178.028 111.762 A 6.753 6.753 0 0 0 178.061 112.46 Q 178.135 113.164 178.37 113.592 A 1.54 1.54 0 0 0 178.502 113.795 Q 178.926 114.344 179.811 114.401 A 3.284 3.284 0 0 0 180.021 114.407 A 1.721 1.721 0 0 0 180.691 114.282 Q 181.076 114.121 181.352 113.753 A 2.035 2.035 0 0 0 181.39 113.7 Q 181.781 113.141 181.864 112.25 A 5.441 5.441 0 0 0 181.886 111.749 Q 181.886 110.922 181.672 110.347 A 2.165 2.165 0 0 0 181.39 109.815 Q 180.895 109.141 179.997 109.141 A 2.943 2.943 0 0 0 179.447 109.189 Q 179.141 109.247 178.906 109.376 A 1.35 1.35 0 0 0 178.502 109.713 A 1.75 1.75 0 0 0 178.228 110.212 Q 178.036 110.734 178.028 111.534 Z"
       id="top_labelLayer"
       stroke="#777777"
       fill="#777777"
       style="stroke:#777777;fill:#777777"
       vector-effect="non-scaling-stroke" />
    <path
       d="M 0 100 L 0 107.355 L 3 107.355 L 3 115.645 L 0 115.645 L 0 123 L 10.775 123 L 10.775 120 L 19.065 120 L 19.065 123 L 27.355 123 L 27.355 120 L 35.645 120 L 35.645 123 L 43.935 123 L 43.935 120 L 52.225 120 L 52.225 123 L 60.515 123 L 63 123 L 63 115.645 L 60 115.645 L 60 107.355 L 63 107.355 L 63 100 L 52.225 100 L 52.225 103 L 43.935 103 L 43.935 100 L 35.645 100 L 35.645 103 L 27.355 103 L 27.355 100 L 19.065 100 L 19.065 103 L 10.775 103 L 10.775 100 L 2.485 100 L 0 100 Z"
       id="back_outsideCutPath"
       stroke="#FF0000"
       stroke-width="0.1"
       style="stroke:#FF0000;stroke-width:0.1"
       vector-effect="non-scaling-stroke" />
    <path
       d="M 34.649 111.965 L 34.667 111.965 Q 34.741 111.86 34.874 111.705 A 8.012 8.012 0 0 1 34.961 111.606 L 35.756 110.763 L 36.199 110.763 L 35.202 111.812 L 36.268 113.225 L 35.817 113.225 L 34.948 112.061 L 34.667 112.304 L 34.667 113.225 L 34.299 113.225 L 34.299 109.73 L 34.667 109.73 L 34.667 111.583 A 2.485 2.485 0 0 1 34.666 111.653 Q 34.663 111.768 34.65 111.956 A 14.814 14.814 0 0 1 34.649 111.965 Z M 27.104 112.908 L 27.077 112.908 L 26.999 113.225 L 26.732 113.225 L 26.732 109.73 L 27.104 109.73 L 27.104 110.579 Q 27.104 110.855 27.088 111.077 A 4.631 4.631 0 0 1 27.086 111.091 L 27.104 111.091 A 0.848 0.848 0 0 1 27.723 110.732 A 1.273 1.273 0 0 1 27.877 110.723 A 1.14 1.14 0 0 1 28.198 110.766 A 0.853 0.853 0 0 1 28.631 111.054 Q 28.899 111.385 28.899 111.992 A 2.186 2.186 0 0 1 28.87 112.36 Q 28.837 112.556 28.764 112.713 A 1.048 1.048 0 0 1 28.628 112.934 A 0.883 0.883 0 0 1 28.001 113.264 A 1.265 1.265 0 0 1 27.877 113.27 A 1.131 1.131 0 0 1 27.593 113.235 A 0.984 0.984 0 0 1 27.438 113.181 A 0.826 0.826 0 0 1 27.104 112.908 Z M 31.341 113.225 L 31.064 113.225 L 30.99 112.875 L 30.972 112.875 A 1.546 1.546 0 0 1 30.847 113.015 Q 30.78 113.081 30.713 113.127 A 0.687 0.687 0 0 1 30.605 113.188 A 0.86 0.86 0 0 1 30.427 113.244 Q 30.341 113.262 30.241 113.267 A 1.678 1.678 0 0 1 30.148 113.27 A 1.144 1.144 0 0 1 29.915 113.248 Q 29.71 113.205 29.574 113.081 A 0.613 0.613 0 0 1 29.389 112.758 A 0.938 0.938 0 0 1 29.366 112.544 A 0.645 0.645 0 0 1 29.733 111.936 Q 30.028 111.779 30.559 111.763 L 30.977 111.749 L 30.977 111.597 A 1.071 1.071 0 0 0 30.966 111.442 Q 30.941 111.267 30.852 111.169 A 0.378 0.378 0 0 0 30.697 111.068 Q 30.595 111.031 30.453 111.031 A 1.214 1.214 0 0 0 30.174 111.065 Q 29.979 111.112 29.757 111.219 L 29.642 110.934 A 1.719 1.719 0 0 1 29.974 110.798 A 1.957 1.957 0 0 1 30.041 110.779 A 1.727 1.727 0 0 1 30.476 110.723 Q 30.751 110.723 30.937 110.799 A 0.635 0.635 0 0 1 31.128 110.918 A 0.59 0.59 0 0 1 31.281 111.153 Q 31.341 111.316 31.341 111.545 L 31.341 113.225 Z M 33.751 110.846 L 33.636 111.163 A 1.659 1.659 0 0 0 33.456 111.103 A 1.981 1.981 0 0 0 33.367 111.081 A 1.54 1.54 0 0 0 33.249 111.059 Q 33.192 111.051 33.141 111.049 A 0.826 0.826 0 0 0 33.108 111.049 Q 32.358 111.049 32.358 112.005 Q 32.358 112.303 32.437 112.51 A 0.773 0.773 0 0 0 32.541 112.702 A 0.592 0.592 0 0 0 32.925 112.931 A 0.902 0.902 0 0 0 33.083 112.944 A 1.561 1.561 0 0 0 33.514 112.882 A 1.927 1.927 0 0 0 33.715 112.812 L 33.715 113.142 A 1.061 1.061 0 0 1 33.455 113.234 Q 33.335 113.26 33.196 113.267 A 2.045 2.045 0 0 1 33.092 113.27 A 1.394 1.394 0 0 1 32.753 113.231 A 0.945 0.945 0 0 1 32.265 112.941 Q 32.012 112.657 31.977 112.169 A 2.255 2.255 0 0 1 31.972 112.01 A 2.057 2.057 0 0 1 32.004 111.636 Q 32.069 111.282 32.269 111.055 A 0.965 0.965 0 0 1 32.798 110.751 A 1.464 1.464 0 0 1 33.117 110.718 A 1.683 1.683 0 0 1 33.472 110.757 A 1.861 1.861 0 0 1 33.576 110.782 Q 33.679 110.81 33.748 110.845 A 0.551 0.551 0 0 1 33.751 110.846 Z M 27.823 111.035 A 1.048 1.048 0 0 0 27.62 111.053 Q 27.505 111.076 27.417 111.128 A 0.496 0.496 0 0 0 27.273 111.254 Q 27.125 111.446 27.107 111.87 A 2.873 2.873 0 0 0 27.104 111.992 A 2.465 2.465 0 0 0 27.117 112.247 Q 27.143 112.504 27.229 112.66 A 0.562 0.562 0 0 0 27.277 112.734 A 0.541 0.541 0 0 0 27.552 112.919 Q 27.643 112.948 27.755 112.955 A 1.199 1.199 0 0 0 27.832 112.958 A 0.743 0.743 0 0 0 28.043 112.929 A 0.536 0.536 0 0 0 28.344 112.707 A 0.856 0.856 0 0 0 28.45 112.478 Q 28.483 112.369 28.499 112.238 A 2.136 2.136 0 0 0 28.513 111.987 A 2.203 2.203 0 0 0 28.499 111.736 Q 28.465 111.44 28.344 111.271 A 0.544 0.544 0 0 0 27.998 111.052 A 0.862 0.862 0 0 0 27.823 111.035 Z M 30.968 112.237 L 30.968 112.014 L 30.595 112.03 A 2.738 2.738 0 0 0 30.376 112.046 Q 30.16 112.071 30.025 112.131 A 0.573 0.573 0 0 0 29.954 112.168 A 0.398 0.398 0 0 0 29.764 112.457 A 0.589 0.589 0 0 0 29.757 112.549 A 0.533 0.533 0 0 0 29.77 112.671 Q 29.797 112.786 29.879 112.857 A 0.406 0.406 0 0 0 30.031 112.937 Q 30.115 112.962 30.222 112.962 A 1.027 1.027 0 0 0 30.444 112.94 Q 30.638 112.897 30.769 112.771 A 0.624 0.624 0 0 0 30.943 112.459 Q 30.967 112.359 30.968 112.24 A 1.183 1.183 0 0 0 30.968 112.237 Z"
       id="back_labelLayer"
       stroke="#777777"
       fill="#777777"
       style="stroke:#777777;fill:#777777"
       vector-effect="non-scaling-stroke" />
    <path
       d="M 69 100 L 69 107.355 L 66 107.355 L 66 115.645 L 69 115.645 L 69 123 L 73.485 123 L 73.485 120 L 81.775 120 L 81.775 123 L 90.065 123 L 90.065 120 L 98.355 120 L 98.355 123 L 106.645 123 L 106.645 120 L 114.935 120 L 114.935 123 L 123.225 123 L 123.225 120 L 131.515 120 L 131.515 123 L 136 123 L 136 115.645 L 139 115.645 L 139 107.355 L 136 107.355 L 136 100 L 131.515 100 L 131.515 103 L 123.225 103 L 123.225 100 L 114.935 100 L 114.935 103 L 106.645 103 L 106.645 100 L 98.355 100 L 98.355 103 L 90.065 103 L 90.065 100 L 81.775 100 L 81.775 103 L 73.485 103 L 73.485 100 L 69 100 Z"
       id="right_outsideCutPath"
       stroke="#FF0000"
       stroke-width="0.1"
       style="stroke:#FF0000;stroke-width:0.1"
       vector-effect="non-scaling-stroke" />
    <path
       d="M 105.36 112.695 L 104.988 112.695 L 104.988 111.102 A 1.054 1.054 0 0 0 104.975 110.937 Q 104.962 110.85 104.932 110.781 A 0.444 0.444 0 0 0 104.851 110.653 Q 104.74 110.533 104.527 110.51 A 0.988 0.988 0 0 0 104.422 110.505 A 1.128 1.128 0 0 0 104.211 110.523 Q 104.094 110.546 104.004 110.595 A 0.522 0.522 0 0 0 103.854 110.716 A 0.62 0.62 0 0 0 103.749 110.903 Q 103.686 111.074 103.677 111.327 A 2.407 2.407 0 0 0 103.676 111.408 L 103.676 112.695 L 103.303 112.695 L 103.303 109.2 L 103.676 109.2 L 103.676 110.258 A 3.354 3.354 0 0 1 103.674 110.387 Q 103.669 110.494 103.658 110.575 L 103.68 110.575 Q 103.79 110.397 103.994 110.295 A 0.957 0.957 0 0 1 104.308 110.202 A 1.21 1.21 0 0 1 104.457 110.193 A 1.513 1.513 0 0 1 104.712 110.213 Q 104.978 110.258 105.135 110.407 Q 105.31 110.574 105.349 110.893 A 1.612 1.612 0 0 1 105.36 111.089 L 105.36 112.695 Z M 101.946 110.233 L 102.798 110.233 L 102.798 110.469 L 102.342 110.523 A 0.606 0.606 0 0 1 102.394 110.601 Q 102.417 110.641 102.438 110.69 A 1.15 1.15 0 0 1 102.454 110.728 A 0.717 0.717 0 0 1 102.496 110.9 A 0.921 0.921 0 0 1 102.503 111.015 A 0.855 0.855 0 0 1 102.464 111.28 A 0.691 0.691 0 0 1 102.256 111.592 Q 102.034 111.786 101.662 111.806 A 1.62 1.62 0 0 1 101.578 111.808 A 1.198 1.198 0 0 1 101.439 111.8 A 1.012 1.012 0 0 1 101.371 111.79 Q 101.133 111.916 101.133 112.106 A 0.193 0.193 0 0 0 101.143 112.17 Q 101.162 112.224 101.216 112.256 A 0.262 0.262 0 0 0 101.274 112.28 Q 101.335 112.297 101.428 112.302 A 1.418 1.418 0 0 0 101.502 112.304 L 101.937 112.304 A 1.526 1.526 0 0 1 102.169 112.321 Q 102.29 112.339 102.388 112.379 A 0.674 0.674 0 0 1 102.552 112.473 Q 102.766 112.641 102.766 112.962 A 0.807 0.807 0 0 1 102.72 113.241 Q 102.643 113.451 102.438 113.585 A 1.118 1.118 0 0 1 102.15 113.716 Q 102.008 113.759 101.835 113.78 A 2.955 2.955 0 0 1 101.481 113.8 A 2.089 2.089 0 0 1 101.201 113.782 Q 101.059 113.763 100.943 113.723 A 0.866 0.866 0 0 1 100.737 113.62 A 0.594 0.594 0 0 1 100.545 113.412 Q 100.475 113.282 100.475 113.113 A 0.57 0.57 0 0 1 100.619 112.724 Q 100.763 112.56 101.023 112.502 A 0.387 0.387 0 0 1 100.873 112.38 A 0.459 0.459 0 0 1 100.865 112.369 Q 100.801 112.279 100.801 112.16 A 0.426 0.426 0 0 1 100.822 112.023 A 0.378 0.378 0 0 1 100.873 111.924 A 0.534 0.534 0 0 1 100.943 111.845 Q 100.981 111.81 101.029 111.776 A 1.171 1.171 0 0 1 101.1 111.729 A 0.654 0.654 0 0 1 100.816 111.502 A 0.81 0.81 0 0 1 100.788 111.462 Q 100.668 111.273 100.668 111.031 A 1.077 1.077 0 0 1 100.697 110.776 A 0.709 0.709 0 0 1 100.911 110.407 A 0.792 0.792 0 0 1 101.215 110.24 Q 101.336 110.203 101.481 110.192 A 1.647 1.647 0 0 1 101.598 110.188 A 1.429 1.429 0 0 1 101.787 110.2 A 1.088 1.088 0 0 1 101.946 110.233 Z M 107.258 112.387 L 107.258 112.672 A 0.367 0.367 0 0 1 107.215 112.69 Q 107.161 112.708 107.08 112.721 Q 106.962 112.74 106.868 112.74 Q 106.298 112.74 106.183 112.261 A 1.172 1.172 0 0 1 106.153 111.987 L 106.153 110.523 L 105.801 110.523 L 105.801 110.343 L 106.153 110.188 L 106.31 109.663 L 106.526 109.663 L 106.526 110.233 L 107.24 110.233 L 107.24 110.523 L 106.526 110.523 L 106.526 111.972 A 0.751 0.751 0 0 0 106.537 112.104 Q 106.56 112.232 106.632 112.313 A 0.346 0.346 0 0 0 106.845 112.426 A 0.498 0.498 0 0 0 106.921 112.432 A 1.225 1.225 0 0 0 107.101 112.419 A 1.133 1.133 0 0 0 107.112 112.418 Q 107.2 112.404 107.253 112.389 A 0.559 0.559 0 0 0 107.258 112.387 Z M 99.159 110.215 L 99.107 110.561 A 1.643 1.643 0 0 0 98.989 110.539 Q 98.93 110.531 98.878 110.528 A 0.874 0.874 0 0 0 98.838 110.527 A 0.646 0.646 0 0 0 98.36 110.734 A 0.884 0.884 0 0 0 98.327 110.77 A 0.851 0.851 0 0 0 98.121 111.248 A 1.132 1.132 0 0 0 98.115 111.374 L 98.115 112.695 L 97.742 112.695 L 97.742 110.233 L 98.049 110.233 L 98.092 110.689 L 98.11 110.689 A 1.259 1.259 0 0 1 98.251 110.488 A 0.962 0.962 0 0 1 98.44 110.319 A 0.743 0.743 0 0 1 98.865 110.188 A 1.712 1.712 0 0 1 99.018 110.195 A 1.249 1.249 0 0 1 99.159 110.215 Z M 99.992 110.233 L 99.992 112.695 L 99.619 112.695 L 99.619 110.233 L 99.992 110.233 Z M 101.818 112.639 L 101.371 112.639 A 0.857 0.857 0 0 0 101.217 112.652 Q 101.129 112.668 101.06 112.704 A 0.437 0.437 0 0 0 100.976 112.76 A 0.393 0.393 0 0 0 100.847 112.983 A 0.597 0.597 0 0 0 100.835 113.108 Q 100.835 113.308 101.003 113.411 Q 101.171 113.515 101.486 113.515 A 2.506 2.506 0 0 0 101.731 113.504 Q 102.019 113.475 102.181 113.374 A 0.544 0.544 0 0 0 102.307 113.269 A 0.408 0.408 0 0 0 102.407 112.994 A 0.504 0.504 0 0 0 102.398 112.893 Q 102.386 112.836 102.359 112.793 A 0.235 0.235 0 0 0 102.283 112.716 Q 102.16 112.639 101.818 112.639 Z M 101.12 111.34 A 0.399 0.399 0 0 0 101.183 111.412 A 0.482 0.482 0 0 0 101.377 111.518 Q 101.45 111.539 101.539 111.544 A 0.96 0.96 0 0 0 101.589 111.545 A 0.812 0.812 0 0 0 101.802 111.52 Q 102.135 111.429 102.135 111.015 A 0.802 0.802 0 0 0 102.108 110.795 Q 102.037 110.549 101.787 110.484 A 0.811 0.811 0 0 0 101.582 110.46 Q 101.381 110.46 101.251 110.543 A 0.429 0.429 0 0 0 101.178 110.602 Q 101.058 110.722 101.04 110.94 A 0.981 0.981 0 0 0 101.037 111.022 Q 101.037 111.216 101.12 111.34 Z M 99.593 109.498 A 0.413 0.413 0 0 0 99.588 109.566 A 0.44 0.44 0 0 0 99.59 109.608 Q 99.593 109.646 99.604 109.677 A 0.192 0.192 0 0 0 99.651 109.754 Q 99.714 109.815 99.808 109.815 A 0.218 0.218 0 0 0 99.963 109.754 Q 100.008 109.711 100.022 109.637 A 0.386 0.386 0 0 0 100.028 109.566 Q 100.028 109.505 100.013 109.459 A 0.188 0.188 0 0 0 99.963 109.38 A 0.22 0.22 0 0 0 99.808 109.319 A 0.285 0.285 0 0 0 99.789 109.32 A 0.216 0.216 0 0 0 99.651 109.379 A 0.174 0.174 0 0 0 99.612 109.433 Q 99.599 109.462 99.593 109.498 Z"
       id="right_labelLayer"
       stroke="#777777"
       fill="#777777"
       style="stroke:#777777;fill:#777777"
       vector-effect="non-scaling-stroke" />
    <path
       d="M 145 3 L 145 7.485 L 142 7.485 L 142 15.775 L 145 15.775 L 145 24.065 L 142 24.065 L 142 32.355 L 145 32.355 L 145 40.645 L 142 40.645 L 142 48.935 L 145 48.935 L 145 57.225 L 142 57.225 L 142 65.515 L 145 65.515 L 145 70 L 152.775 70 L 152.775 73 L 161.065 73 L 161.065 70 L 169.355 70 L 169.355 73 L 177.645 73 L 177.645 70 L 185.935 70 L 185.935 73 L 194.225 73 L 194.225 70 L 202 70 L 202 65.515 L 205 65.515 L 205 57.225 L 202 57.225 L 202 48.935 L 205 48.935 L 205 40.645 L 202 40.645 L 202 32.355 L 205 32.355 L 205 24.065 L 202 24.065 L 202 15.775 L 205 15.775 L 205 7.485 L 202 7.485 L 202 3 L 194.225 3 L 194.225 0 L 185.935 0 L 185.935 3 L 177.645 3 L 177.645 0 L 169.355 0 L 169.355 3 L 161.065 3 L 161.065 0 L 152.775 0 L 152.775 3 L 145 3 Z"
       id="bottom_outsideCutPath"
       stroke="#FF0000"
       stroke-width="0.1"
       style="stroke:#FF0000;stroke-width:0.1"
       vector-effect="non-scaling-stroke" />
    <path
       d="M 194.227 41.225 L 193.206 41.225 L 193.206 36.838 A 3.013 3.013 0 0 0 193.176 36.395 Q 193.142 36.169 193.071 35.987 A 1.234 1.234 0 0 0 192.861 35.629 Q 192.56 35.277 191.967 35.233 A 2.371 2.371 0 0 0 191.791 35.226 A 2.628 2.628 0 0 0 191.256 35.277 Q 190.938 35.343 190.699 35.496 A 1.352 1.352 0 0 0 190.382 35.774 A 1.688 1.688 0 0 0 190.096 36.292 Q 189.928 36.762 189.927 37.449 A 5.72 5.72 0 0 0 189.927 37.46 L 189.927 41.225 L 188.905 41.225 L 188.905 36.838 A 3.013 3.013 0 0 0 188.875 36.395 Q 188.841 36.169 188.77 35.987 A 1.234 1.234 0 0 0 188.561 35.629 A 1.071 1.071 0 0 0 188.068 35.309 Q 187.891 35.251 187.674 35.234 A 2.392 2.392 0 0 0 187.484 35.226 Q 186.814 35.226 186.395 35.506 A 1.339 1.339 0 0 0 186.078 35.802 Q 185.632 36.377 185.632 37.687 L 185.632 41.225 L 184.611 41.225 L 184.611 34.482 L 185.442 34.482 L 185.608 35.405 L 185.657 35.405 Q 185.946 34.913 186.472 34.636 A 2.425 2.425 0 0 1 187.43 34.367 A 2.929 2.929 0 0 1 187.65 34.359 Q 189.232 34.359 189.718 35.503 L 189.767 35.503 A 2.132 2.132 0 0 1 190.57 34.706 A 2.562 2.562 0 0 1 190.64 34.666 A 2.585 2.585 0 0 1 191.589 34.378 A 3.223 3.223 0 0 1 191.945 34.359 Q 192.716 34.359 193.226 34.626 A 1.683 1.683 0 0 1 193.658 34.946 A 1.759 1.759 0 0 1 194.036 35.564 Q 194.137 35.836 194.185 36.175 A 4.684 4.684 0 0 1 194.227 36.826 L 194.227 41.225 Z M 153.794 40.357 L 153.72 40.357 L 153.505 41.225 L 152.773 41.225 L 152.773 31.652 L 153.794 31.652 L 153.794 33.977 A 21.293 21.293 0 0 1 153.782 34.697 Q 153.77 35.06 153.745 35.38 L 153.794 35.38 Q 154.508 34.371 155.91 34.371 A 3.121 3.121 0 0 1 156.789 34.488 A 2.337 2.337 0 0 1 157.975 35.279 A 3.009 3.009 0 0 1 158.502 36.295 Q 158.632 36.714 158.681 37.215 A 6.555 6.555 0 0 1 158.71 37.847 Q 158.71 39.508 157.968 40.428 A 2.418 2.418 0 0 1 156.25 41.332 A 3.464 3.464 0 0 1 155.91 41.348 Q 155.252 41.348 154.708 41.105 Q 154.163 40.862 153.794 40.357 Z M 171.205 40.382 L 171.205 41.163 A 1.005 1.005 0 0 1 171.086 41.211 Q 170.959 41.253 170.777 41.285 A 3.819 3.819 0 0 1 170.716 41.296 A 4.427 4.427 0 0 1 170.427 41.333 Q 170.291 41.346 170.169 41.348 A 2.616 2.616 0 0 1 170.135 41.348 A 2.667 2.667 0 0 1 169.349 41.242 Q 168.178 40.881 168.178 39.287 L 168.178 35.276 L 167.212 35.276 L 167.212 34.783 L 168.178 34.359 L 168.609 32.919 L 169.199 32.919 L 169.199 34.482 L 171.156 34.482 L 171.156 35.276 L 169.199 35.276 L 169.199 39.244 Q 169.199 39.672 169.342 39.96 A 0.991 0.991 0 0 0 169.489 40.179 A 0.949 0.949 0 0 0 170.072 40.489 A 1.365 1.365 0 0 0 170.282 40.505 A 3.354 3.354 0 0 0 170.774 40.47 A 3.088 3.088 0 0 0 170.805 40.465 A 5.525 5.525 0 0 0 170.953 40.44 Q 171.094 40.413 171.191 40.386 A 1.534 1.534 0 0 0 171.205 40.382 Z M 175.653 40.382 L 175.653 41.163 A 1.005 1.005 0 0 1 175.534 41.211 Q 175.407 41.253 175.225 41.285 A 3.819 3.819 0 0 1 175.164 41.296 A 4.427 4.427 0 0 1 174.876 41.333 Q 174.739 41.346 174.617 41.348 A 2.616 2.616 0 0 1 174.583 41.348 A 2.667 2.667 0 0 1 173.797 41.242 Q 172.626 40.881 172.626 39.287 L 172.626 35.276 L 171.66 35.276 L 171.66 34.783 L 172.626 34.359 L 173.057 32.919 L 173.648 32.919 L 173.648 34.482 L 175.604 34.482 L 175.604 35.276 L 173.648 35.276 L 173.648 39.244 Q 173.648 39.672 173.79 39.96 A 0.991 0.991 0 0 0 173.937 40.179 A 0.949 0.949 0 0 0 174.52 40.489 A 1.365 1.365 0 0 0 174.73 40.505 A 3.354 3.354 0 0 0 175.222 40.47 A 3.088 3.088 0 0 0 175.253 40.465 A 5.525 5.525 0 0 0 175.401 40.44 Q 175.542 40.413 175.64 40.386 A 1.534 1.534 0 0 0 175.653 40.382 Z M 166.22 38.873 A 5.275 5.275 0 0 0 166.314 37.847 A 5.994 5.994 0 0 0 166.312 37.685 Q 166.297 37.124 166.175 36.647 A 3.18 3.18 0 0 0 165.48 35.3 A 2.674 2.674 0 0 0 164.239 34.5 A 3.432 3.432 0 0 0 163.232 34.359 Q 161.767 34.359 160.943 35.279 A 2.822 2.822 0 0 0 160.597 35.759 Q 160.119 36.592 160.119 37.847 A 5.109 5.109 0 0 0 160.183 38.675 A 3.778 3.778 0 0 0 160.5 39.705 Q 160.882 40.499 161.583 40.923 A 2.844 2.844 0 0 0 162.236 41.214 A 3.28 3.28 0 0 0 163.189 41.348 A 3.966 3.966 0 0 0 163.881 41.29 A 2.723 2.723 0 0 0 165.483 40.422 A 2.849 2.849 0 0 0 165.823 39.956 Q 166.099 39.482 166.22 38.873 Z M 182.727 38.873 A 5.275 5.275 0 0 0 182.821 37.847 A 5.994 5.994 0 0 0 182.819 37.685 Q 182.803 37.124 182.682 36.647 A 3.18 3.18 0 0 0 181.987 35.3 A 2.674 2.674 0 0 0 180.746 34.5 A 3.432 3.432 0 0 0 179.738 34.359 Q 178.274 34.359 177.45 35.279 A 2.822 2.822 0 0 0 177.103 35.759 Q 176.625 36.592 176.625 37.847 A 5.109 5.109 0 0 0 176.69 38.675 A 3.778 3.778 0 0 0 177.007 39.705 Q 177.388 40.499 178.09 40.923 A 2.844 2.844 0 0 0 178.742 41.214 A 3.28 3.28 0 0 0 179.695 41.348 A 3.966 3.966 0 0 0 180.388 41.29 A 2.723 2.723 0 0 0 181.99 40.422 A 2.849 2.849 0 0 0 182.329 39.956 Q 182.606 39.482 182.727 38.873 Z M 161.177 37.847 Q 161.177 39.139 161.694 39.816 A 1.674 1.674 0 0 0 162.784 40.458 A 2.536 2.536 0 0 0 163.213 40.493 A 2.372 2.372 0 0 0 163.839 40.415 A 1.651 1.651 0 0 0 164.736 39.819 Q 165.256 39.145 165.256 37.847 Q 165.256 36.561 164.736 35.894 A 1.68 1.68 0 0 0 163.691 35.271 A 2.576 2.576 0 0 0 163.201 35.226 A 2.431 2.431 0 0 0 162.596 35.297 A 1.627 1.627 0 0 0 161.687 35.885 A 2.112 2.112 0 0 0 161.359 36.519 Q 161.177 37.068 161.177 37.847 Z M 177.684 37.847 Q 177.684 39.139 178.2 39.816 A 1.674 1.674 0 0 0 179.291 40.458 A 2.536 2.536 0 0 0 179.72 40.493 A 2.372 2.372 0 0 0 180.346 40.415 A 1.651 1.651 0 0 0 181.243 39.819 Q 181.763 39.145 181.763 37.847 Q 181.763 36.561 181.243 35.894 A 1.68 1.68 0 0 0 180.198 35.271 A 2.576 2.576 0 0 0 179.708 35.226 A 2.431 2.431 0 0 0 179.103 35.297 A 1.627 1.627 0 0 0 178.194 35.885 A 2.112 2.112 0 0 0 177.866 36.519 Q 177.684 37.068 177.684 37.847 Z M 155.763 35.226 A 2.87 2.87 0 0 0 155.207 35.276 Q 154.583 35.4 154.255 35.826 A 1.748 1.748 0 0 0 154.002 36.308 Q 153.794 36.892 153.794 37.847 A 6.753 6.753 0 0 0 153.827 38.545 Q 153.901 39.249 154.136 39.678 A 1.54 1.54 0 0 0 154.268 39.881 Q 154.692 40.429 155.577 40.486 A 3.284 3.284 0 0 0 155.787 40.493 A 2.036 2.036 0 0 0 156.366 40.415 A 1.469 1.469 0 0 0 157.19 39.807 A 2.344 2.344 0 0 0 157.48 39.179 Q 157.652 38.618 157.652 37.835 A 6.034 6.034 0 0 0 157.615 37.147 Q 157.522 36.337 157.19 35.872 A 1.489 1.489 0 0 0 156.242 35.272 A 2.362 2.362 0 0 0 155.763 35.226 Z"
       id="bottom_labelLayer"
       stroke="#777777"
       fill="#777777"
       style="stroke:#777777;fill:#777777"
       vector-effect="non-scaling-stroke" />
  </g>
  <rect
     style="fill:none;stroke:#ff0000;stroke-width:0.25"
     id="rect382"
     width="11"
     height="12"
     x="99.125"
     y="105.625" />
  <rect
     style="fill:none;stroke:#ff0000;stroke-width:0.25"
     id="rect487"
     width="12"
     height="4"
     x="184.125"
     y="80.125" />
  <rect
     style="fill:none;stroke:#ff0000;stroke-width:0.25"
     id="rect487-4"
     width="12"
     height="4"
     x="159.625"
     y="80.125" />
  <rect
     style="fill:none;stroke:#ff0000;stroke-width:0.25"
     id="rect513"
     width="22"
     height="9"
     x="177.125"
     y="135.625" />
  <circle
     style="fill:none;stroke:#ff0000;stroke-width:0.25"
     id="path570"
     cx="151.125"
     cy="141.125"
     r="1.5" />
</svg>
