%TF.GenerationSoftware,KiCad,Pcbnew,7.0.1*%
%TF.CreationDate,2023-04-20T17:16:14+02:00*%
%TF.ProjectId,PCB_evenwicht,5043425f-6576-4656-9e77-696368742e6b,rev?*%
%TF.SameCoordinates,Original*%
%TF.FileFunction,Soldermask,Bot*%
%TF.FilePolarity,Negative*%
%FSLAX46Y46*%
G04 Gerber Fmt 4.6, Leading zero omitted, Abs format (unit mm)*
G04 Created by KiCad (PCBNEW 7.0.1) date 2023-04-20 17:16:14*
%MOMM*%
%LPD*%
G01*
G04 APERTURE LIST*
%ADD10R,1.700000X1.700000*%
%ADD11O,1.700000X1.700000*%
%ADD12C,2.032000*%
%ADD13C,1.440000*%
%ADD14R,4.600000X2.000000*%
%ADD15O,4.200000X2.000000*%
%ADD16O,2.000000X4.200000*%
G04 APERTURE END LIST*
D10*
%TO.C,J8*%
X107696000Y-80264000D03*
D11*
X110236000Y-80264000D03*
X112776000Y-80264000D03*
%TD*%
D12*
%TO.C,U3*%
X131470400Y-81584800D03*
X128930400Y-81584800D03*
X120802400Y-81584800D03*
X118262400Y-81584800D03*
X118262400Y-100126800D03*
X120802400Y-100126800D03*
X128930400Y-100126800D03*
X131470400Y-100126800D03*
%TD*%
D10*
%TO.C,J4*%
X168402000Y-62738000D03*
D11*
X168402000Y-65278000D03*
X168402000Y-67818000D03*
X168402000Y-70358000D03*
%TD*%
D10*
%TO.C,J2*%
X143256000Y-62484000D03*
D11*
X143256000Y-59944000D03*
X143256000Y-57404000D03*
X143256000Y-54864000D03*
%TD*%
D13*
%TO.C,RV2*%
X144780000Y-83261200D03*
X147320000Y-80721200D03*
X144780000Y-78181200D03*
%TD*%
%TO.C,RV1*%
X145948400Y-72694800D03*
X148488400Y-70154800D03*
X145948400Y-67614800D03*
%TD*%
D10*
%TO.C,J7*%
X110236000Y-89408000D03*
D11*
X107696000Y-89408000D03*
%TD*%
D10*
%TO.C,J3*%
X110241000Y-93980000D03*
D11*
X107701000Y-93980000D03*
%TD*%
D10*
%TO.C,J6*%
X168402000Y-86624000D03*
D11*
X168402000Y-89164000D03*
X168402000Y-91704000D03*
X168402000Y-94244000D03*
%TD*%
D10*
%TO.C,J9*%
X110241000Y-98552000D03*
D11*
X107701000Y-98552000D03*
%TD*%
D10*
%TO.C,J5*%
X107696000Y-84836000D03*
D11*
X110236000Y-84836000D03*
X112776000Y-84836000D03*
%TD*%
D14*
%TO.C,J1*%
X139192000Y-87934000D03*
D15*
X139192000Y-94234000D03*
D16*
X143992000Y-90834000D03*
%TD*%
M02*
